<?xml version="1.0" encoding="utf-8"?>
<svg viewBox="0 0 512 512" fill="none" xmlns="http://www.w3.org/2000/svg">
  <path fill="#fff" d="M0 0h512v512H0Z"/>
  <path fill="#9067eb" d="M 376.577 97.147 C 342.475 97.334 321.361 134.368 338.574 163.809 C 342.133 169.896 347.092 175.046 353.042 178.829 L 323.968 279.895 L 321.2 279.895 C 311.693 279.995 302.471 283.15 294.895 288.894 L 241.593 243.899 C 251.971 211.412 223.288 179.874 189.965 187.131 C 156.642 194.388 143.67 234.997 166.616 260.226 C 167.136 260.797 167.669 261.354 168.217 261.897 L 137.067 324.197 L 132.914 324.197 C 98.81 324.264 77.567 361.224 94.677 390.726 C 111.787 420.228 154.416 420.144 171.41 390.576 C 182.975 370.455 177.052 344.821 157.834 331.812 L 187.599 272.973 C 202.309 276.874 217.991 272.954 229.134 262.589 L 281.05 306.199 C 266.978 337.265 291.813 371.914 325.752 368.568 C 359.692 365.222 377.282 326.39 357.414 298.671 C 354.011 293.922 349.702 289.894 344.735 286.817 L 373.809 185.752 L 376.577 185.752 C 410.681 185.752 431.996 148.833 414.945 119.298 C 407.03 105.591 392.405 97.147 376.577 97.147 Z M 132.914 390.651 C 115.862 390.651 105.204 372.192 113.73 357.424 C 122.256 342.656 143.571 342.656 152.097 357.424 C 154.041 360.791 155.065 364.611 155.065 368.5 C 155.065 380.734 145.147 390.651 132.914 390.651 Z M 199.367 252.205 C 182.315 252.205 171.657 233.747 180.184 218.979 C 188.71 204.212 210.025 204.212 218.551 218.979 C 220.495 222.346 221.519 226.166 221.519 230.055 C 221.519 242.289 211.601 252.205 199.367 252.205 Z M 321.2 346.349 C 304.147 346.349 293.49 327.889 302.015 313.121 C 310.542 298.354 331.857 298.354 340.383 313.121 C 342.327 316.489 343.35 320.309 343.35 324.197 C 343.35 336.431 333.433 346.349 321.2 346.349 Z M 376.577 163.6 C 359.525 163.6 348.867 145.142 357.394 130.374 C 365.92 115.607 387.235 115.607 395.761 130.374 C 397.705 133.741 398.729 137.561 398.729 141.45 C 398.729 153.684 388.811 163.6 376.577 163.6 Z" style=""/>
</svg>